<?xml version="1.0" encoding="UTF-8" standalone="no"?>
<!DOCTYPE svg PUBLIC "-//W3C//DTD SVG 1.1//EN" "http://www.w3.org/Graphics/SVG/1.1/DTD/svg11.dtd">
<svg width="100%" height="100%" viewBox="0 0 24 24" version="1.1" xmlns="http://www.w3.org/2000/svg" xmlns:xlink="http://www.w3.org/1999/xlink" xml:space="preserve" xmlns:serif="http://www.serif.com/" style="fill-rule:evenodd;clip-rule:evenodd;stroke-linejoin:round;stroke-miterlimit:2;">
    <g transform="matrix(1,0,0,1,3,3)">
        <g>
            <path d="M3.19,9.345C3.569,8.967 4.181,8.967 4.56,9.345C4.741,9.526 4.843,9.772 4.843,10.029C4.843,10.285 4.741,10.531 4.56,10.712L2.505,12.764C2.142,13.126 1.938,13.618 1.938,14.132C1.938,14.645 2.142,15.137 2.505,15.499C3.262,16.254 4.488,16.254 5.245,15.499L10.039,10.712C10.22,10.531 10.322,10.285 10.322,10.029C10.322,9.772 10.22,9.526 10.039,9.345C9.857,9.164 9.755,8.918 9.755,8.661C9.755,8.404 9.857,8.158 10.039,7.977C10.418,7.599 11.03,7.599 11.409,7.977C11.954,8.521 12.26,9.259 12.26,10.029C12.26,10.798 11.954,11.536 11.409,12.08L6.614,16.867C5.1,18.378 2.648,18.378 1.134,16.867C0.408,16.142 -0,15.158 -0,14.132C-0,13.106 0.408,12.122 1.134,11.397L3.19,9.344L3.19,9.345ZM14.81,8.655C14.431,9.033 13.819,9.033 13.44,8.655C13.259,8.474 13.157,8.228 13.157,7.972C13.157,7.715 13.259,7.469 13.44,7.288L15.495,5.236C15.858,4.874 16.062,4.382 16.062,3.869C16.062,3.355 15.858,2.863 15.495,2.501C14.738,1.746 13.512,1.746 12.755,2.501L7.962,7.288C7.781,7.469 7.679,7.715 7.679,7.972C7.679,8.228 7.781,8.474 7.962,8.655C8.144,8.836 8.246,9.082 8.246,9.339C8.246,9.596 8.144,9.842 7.962,10.023C7.583,10.401 6.971,10.401 6.592,10.023C6.047,9.479 5.741,8.741 5.741,7.972C5.741,7.202 6.047,6.464 6.592,5.92L11.387,1.133C12.901,-0.378 15.353,-0.378 16.867,1.133C17.593,1.858 18.001,2.842 18.001,3.868C18.001,4.894 17.593,5.878 16.867,6.603L14.81,8.656L14.81,8.655Z" style="fill-rule:nonzero;"/>
        </g>
    </g>
    <g>
        <g transform="matrix(0.589801,-0.589801,0.639417,0.639417,-1.33163,7.40437)">
            <path d="M8.262,3.639C8.262,3.204 7.878,2.85 7.406,2.85C6.933,2.85 6.55,3.204 6.55,3.639L6.55,5.63C6.55,6.066 6.933,6.42 7.406,6.42C7.878,6.42 8.262,6.066 8.262,5.63L8.262,3.639Z"/>
        </g>
        <g transform="matrix(0.834105,2.77556e-17,2.22045e-16,0.904273,3.82271,-0.19121)">
            <path d="M8.262,3.639C8.262,3.204 7.878,2.85 7.406,2.85C6.933,2.85 6.55,3.204 6.55,3.639L6.55,5.63C6.55,6.066 6.933,6.42 7.406,6.42C7.878,6.42 8.262,6.066 8.262,5.63L8.262,3.639Z"/>
        </g>
        <g transform="matrix(-2.77556e-17,-0.834105,0.904273,-2.77556e-16,-0.19121,16.1773)">
            <path d="M8.262,3.639C8.262,3.204 7.878,2.85 7.406,2.85C6.933,2.85 6.55,3.204 6.55,3.639L6.55,5.63C6.55,6.066 6.933,6.42 7.406,6.42C7.878,6.42 8.262,6.066 8.262,5.63L8.262,3.639Z"/>
        </g>
    </g>
    <g transform="matrix(-1,-1.22465e-16,1.22465e-16,-1,25.0998,23.0998)">
        <g transform="matrix(0.589801,-0.589801,0.639417,0.639417,-1.33163,7.40437)">
            <path d="M8.262,3.639C8.262,3.204 7.878,2.85 7.406,2.85C6.933,2.85 6.55,3.204 6.55,3.639L6.55,5.63C6.55,6.066 6.933,6.42 7.406,6.42C7.878,6.42 8.262,6.066 8.262,5.63L8.262,3.639Z"/>
        </g>
        <g transform="matrix(0.834105,2.77556e-17,2.22045e-16,0.904273,3.82271,-0.19121)">
            <path d="M8.262,3.639C8.262,3.204 7.878,2.85 7.406,2.85C6.933,2.85 6.55,3.204 6.55,3.639L6.55,5.63C6.55,6.066 6.933,6.42 7.406,6.42C7.878,6.42 8.262,6.066 8.262,5.63L8.262,3.639Z"/>
        </g>
        <g transform="matrix(-2.77556e-17,-0.834105,0.904273,-2.77556e-16,-0.19121,16.1773)">
            <path d="M8.262,3.639C8.262,3.204 7.878,2.85 7.406,2.85C6.933,2.85 6.55,3.204 6.55,3.639L6.55,5.63C6.55,6.066 6.933,6.42 7.406,6.42C7.878,6.42 8.262,6.066 8.262,5.63L8.262,3.639Z"/>
        </g>
    </g>
</svg>
